<?xml version="1.0" standalone="no"?>
<!DOCTYPE svg PUBLIC "-//W3C//DTD SVG 20010904//EN"
 "http://www.w3.org/TR/2001/REC-SVG-20010904/DTD/svg10.dtd">
<svg version="1.0" xmlns="http://www.w3.org/2000/svg"
 width="5785.000000pt" height="3340.000000pt" viewBox="0 0 5785.000000 3340.000000"
 preserveAspectRatio="xMidYMid meet">
<metadata>
Created by potrace 1.15, written by Peter Selinger 2001-2017
</metadata>
<g transform="translate(0.000000,3340.000000) scale(0.100000,-0.100000)"
fill="#000000" stroke="none">
<path d="M16885 21820 c-108 -11 -166 -26 -254 -67 -144 -68 -246 -203 -288
-383 -17 -70 -18 -151 -16 -1160 2 -597 10 -2196 18 -3555 8 -1358 19 -3300
25 -4315 5 -1015 12 -2218 15 -2675 2 -456 6 -1206 7 -1665 1 -459 3 -879 6
-932 l3 -97 10882 -1 c5985 0 11594 0 12465 -1 887 -1 1587 2 1592 7 7 8 13
513 25 2374 2 360 7 923 10 1250 3 327 10 1392 15 2365 6 974 12 1914 15 2090
2 176 7 892 11 1592 6 1056 5 1275 -6 1288 -10 12 -10 19 -3 23 6 4 14 41 17
82 6 82 22 2493 18 2870 -2 268 -8 359 -27 446 -38 167 -142 303 -290 378 -99
50 -182 66 -375 71 -96 3 -4223 7 -9170 10 -4947 3 -10259 7 -11805 9 -1545 3
-2846 1 -2890 -4z"/>
<path d="M7801 20258 c-11 -17 -10 -22 1 -29 7 -5 9 -9 3 -9 -5 0 1 -6 14 -13
29 -14 39 -37 17 -37 -11 0 -16 -9 -15 -27 0 -16 3 -23 6 -16 3 10 7 10 17 0
11 -9 10 -14 -3 -24 -13 -9 -14 -14 -3 -24 10 -11 12 -9 12 6 0 10 3 16 6 12
10 -10 -7 -48 -18 -41 -7 4 -8 2 -4 -4 4 -7 14 -12 22 -12 8 0 14 -5 14 -11 0
-5 -4 -7 -10 -4 -5 3 -10 -1 -10 -9 0 -9 6 -13 14 -10 8 3 17 0 21 -6 4 -7 -2
-14 -14 -17 -27 -7 -27 -23 -1 -23 11 0 20 -4 20 -10 0 -5 7 -10 16 -10 8 0
12 5 9 10 -3 6 -1 10 4 10 16 0 13 -16 -4 -30 -12 -10 -21 -8 -50 14 l-35 27
0 -25 c0 -16 7 -27 20 -31 18 -6 18 -8 5 -21 -8 -8 -11 -22 -7 -32 6 -16 7
-16 10 1 2 10 9 16 15 14 20 -6 18 -25 -4 -46 -16 -15 -19 -21 -8 -21 8 0 15
-8 15 -17 1 -10 5 -27 9 -37 7 -16 5 -18 -8 -13 -9 3 -17 2 -17 -4 0 -6 9 -13
20 -16 15 -4 19 -13 17 -38 -1 -18 -5 -31 -9 -28 -5 2 -7 -11 -7 -29 1 -21 3
-25 6 -12 3 16 10 20 23 17 24 -6 35 -33 14 -33 -13 0 -15 -7 -10 -35 6 -29 4
-34 -9 -29 -25 10 -18 -21 10 -42 25 -19 34 -44 16 -44 -16 0 -23 -38 -11 -60
8 -15 8 -20 -1 -20 -18 0 -5 -121 15 -136 19 -13 21 -25 4 -21 -13 2 -13 -3
-9 -135 0 -21 6 -38 12 -38 7 0 9 12 5 34 -4 19 -3 37 2 40 5 3 9 -13 10 -35
1 -27 -3 -41 -13 -46 -14 -5 -15 -23 -9 -132 3 -69 10 -142 14 -161 l8 -35 2
40 c1 22 1 56 0 75 -1 19 2 32 6 27 4 -4 9 -28 11 -54 1 -25 8 -51 14 -57 9
-8 10 -6 5 9 -5 14 -4 17 3 10 6 -6 8 -21 4 -34 -4 -14 -8 -18 -13 -11 -4 6
-13 -16 -19 -50 -7 -34 -10 -65 -7 -68 3 -3 6 1 6 8 0 9 7 6 21 -8 12 -14 18
-30 14 -41 -7 -23 4 -73 15 -66 10 6 22 -24 14 -36 -3 -5 0 -9 6 -9 7 0 8 -6
0 -19 -5 -11 -10 -31 -10 -45 0 -14 -4 -26 -9 -26 -5 0 -7 -9 -4 -20 4 -14 14
-20 37 -21 l31 -1 -40 -14 -40 -14 38 5 c35 4 51 -8 25 -19 -13 -5 -6 -12 57
-60 20 -15 20 -15 -3 -16 -12 0 -30 9 -39 20 -19 22 -39 26 -45 9 -6 -17 -36
1 -41 24 -3 13 -5 7 -6 -15 0 -20 4 -40 9 -43 8 -5 8 -11 1 -19 -7 -8 -8 -33
-2 -72 7 -51 9 -54 10 -19 1 28 7 44 21 53 12 7 20 8 20 2 0 -5 -4 -10 -9 -10
-6 0 -10 -18 -9 -39 0 -43 -8 -64 -23 -56 -5 4 -9 -2 -9 -11 0 -10 3 -14 7
-11 3 4 12 -5 20 -19 16 -33 17 -45 1 -39 -9 4 -14 -8 -16 -36 -3 -39 -1 -41
22 -37 20 4 25 0 28 -24 3 -16 1 -31 -4 -34 -4 -3 -8 5 -9 18 0 23 0 23 -10
-2 -7 -17 -7 -26 0 -28 6 -2 11 -13 11 -24 0 -14 -5 -18 -15 -14 -9 3 -15 0
-15 -9 0 -8 5 -15 11 -15 6 0 8 -7 5 -15 -3 -8 -9 -22 -12 -30 -5 -11 -2 -13
10 -9 17 7 22 -11 6 -21 -5 -3 -10 -12 -10 -18 1 -18 40 36 40 55 0 22 19 33
33 19 8 -8 8 -14 0 -22 -6 -6 -9 -18 -6 -25 4 -10 0 -12 -11 -8 -29 11 -18
-32 17 -60 29 -25 30 -28 14 -37 -9 -6 -16 -13 -13 -17 2 -4 -5 -16 -15 -26
-19 -19 -19 -19 -19 8 0 15 4 25 9 22 5 -3 14 1 21 9 7 8 8 15 3 15 -5 0 -19
9 -31 20 l-22 21 0 -46 c0 -25 -5 -45 -11 -45 -6 0 -8 -9 -4 -20 9 -28 13 -66
15 -130 1 -30 4 -50 6 -44 6 13 44 7 44 -7 0 -5 -12 -9 -26 -9 -17 0 -23 -4
-18 -12 4 -6 8 -47 10 -91 1 -44 7 -83 13 -86 6 -4 7 -12 1 -21 -16 -26 -12
-47 5 -24 14 19 14 19 15 -2 0 -12 -7 -24 -14 -27 -16 -6 -12 -64 6 -99 6 -12
5 -18 -2 -18 -7 0 -8 -24 -4 -72 3 -40 7 -98 8 -128 1 -49 3 -55 24 -58 17 -3
22 -10 21 -30 0 -26 -1 -26 -9 -4 -5 12 -14 22 -20 22 -11 0 -11 -7 10 -215 5
-49 10 -100 10 -113 0 -13 4 -20 10 -17 6 3 10 -1 10 -9 0 -8 -4 -17 -9 -20
-4 -3 -6 -17 -3 -31 4 -24 15 -26 18 -4 3 22 5 23 14 9 11 -17 14 -37 4 -27
-8 7 -34 -17 -34 -32 0 -15 17 -14 23 2 4 7 6 6 6 -5 1 -9 -5 -19 -11 -22 -9
-4 -10 -8 -2 -11 6 -3 9 -17 6 -30 -3 -17 0 -25 9 -25 12 0 12 -2 0 -9 -10 -7
-12 -20 -5 -57 4 -27 7 -58 6 -68 -1 -11 5 -35 14 -54 10 -22 12 -37 5 -45 -6
-8 -5 -38 4 -92 15 -90 22 -164 31 -310 3 -55 9 -115 14 -132 6 -23 5 -33 -3
-33 -8 0 -8 -3 -2 -8 6 -4 11 -38 11 -77 1 -38 5 -128 9 -200 4 -71 7 -138 7
-148 -1 -12 4 -17 14 -13 8 3 14 1 14 -3 0 -5 -5 -11 -12 -13 -15 -5 -15 -32
-1 -313 15 -281 25 -560 27 -720 2 -94 -1 -123 -13 -135 -13 -13 -13 -15 2
-18 9 -2 17 -8 17 -13 0 -6 -4 -8 -9 -5 -12 8 -21 -18 -22 -67 -2 -30 -3 -34
-6 -14 -13 84 -18 -16 -21 -391 -2 -423 -10 -601 -38 -817 -17 -134 -23 -169
-29 -163 -4 4 -19 161 -29 308 -3 41 -15 165 -26 275 -29 273 -27 259 -35 365
-3 52 -9 102 -12 110 -3 8 -6 31 -8 50 -4 61 -35 314 -40 330 -2 8 -9 60 -15
115 -5 55 -12 116 -15 135 -2 19 -6 54 -8 77 -2 24 -6 46 -10 50 -4 3 -7 29
-7 57 0 32 -4 46 -9 38 -14 -23 -21 12 -21 114 0 69 -3 93 -11 88 -9 -5 -10 4
-5 30 9 48 0 77 -22 70 -15 -5 -15 -4 1 6 9 6 17 21 17 32 0 21 0 21 -15 2
-14 -18 -15 -17 -9 11 3 17 8 36 10 43 2 8 -1 12 -8 10 -7 -3 -15 -15 -19 -29
l-7 -24 -1 24 c-1 14 -8 33 -18 43 -15 17 -15 18 3 19 17 0 16 2 -3 11 -30 15
-29 28 2 28 16 0 25 -6 25 -15 0 -8 3 -15 8 -15 4 0 7 11 7 24 0 15 -5 22 -12
19 -7 -3 -13 2 -13 10 0 8 6 17 13 20 7 3 0 9 -15 16 -15 6 -34 8 -42 5 -7 -3
-16 2 -19 10 -4 11 -1 16 11 17 10 0 12 3 5 6 -7 2 -13 11 -13 19 0 11 4 12
19 5 22 -12 31 -5 31 22 0 12 -5 17 -14 14 -8 -3 -17 1 -20 9 -3 8 -15 14 -26
14 -11 0 -20 5 -20 11 0 7 10 9 25 5 21 -5 25 -3 25 15 0 16 5 20 20 16 12 -3
18 -1 14 5 -3 5 -9 21 -13 34 -6 25 -6 25 -27 5 -16 -14 -24 -17 -33 -8 -8 8
-11 8 -11 -1 0 -6 9 -17 20 -24 25 -16 26 -28 0 -28 -13 0 -22 9 -26 28 -3 15
-7 33 -10 40 -2 6 3 12 10 12 9 0 12 7 9 19 -3 13 2 21 17 26 14 4 19 12 16
22 -4 9 -2 21 4 28 8 9 6 14 -5 18 -8 4 -14 3 -14 -1 4 -23 -4 -24 -21 -2 -11
14 -20 19 -20 12 0 -7 9 -20 20 -29 11 -10 20 -21 20 -25 0 -9 -37 -48 -46
-48 -3 0 -3 8 1 19 3 10 1 39 -4 63 -6 25 -11 71 -12 104 -1 32 -8 73 -15 89
-8 17 -17 73 -19 125 -8 140 -21 290 -30 350 -2 14 -4 38 -4 53 -1 16 -5 26
-9 23 -9 -5 -6 109 3 124 3 4 1 10 -3 12 -12 4 -23 88 -12 88 4 0 11 -7 14
-16 4 -9 9 -14 12 -12 3 3 -2 22 -10 43 -13 29 -13 41 -4 58 7 12 13 35 14 51
2 24 0 26 -8 12 -5 -10 -7 -20 -4 -23 7 -7 -12 -33 -24 -33 -8 0 -5 44 5 78 6
18 4 21 -9 16 -9 -3 -16 -15 -16 -25 0 -10 -5 -19 -11 -19 -7 0 -8 7 -4 18 13
33 18 82 8 82 -6 0 -10 33 -9 80 1 59 -2 80 -11 80 -7 0 -13 5 -13 11 0 6 7 8
16 5 9 -3 12 -2 9 5 -4 5 -16 7 -28 3 -20 -6 -20 -6 -5 17 10 17 13 31 7 47
-8 22 -29 31 -29 12 0 -5 5 -10 11 -10 8 0 8 -5 -1 -15 -17 -20 -4 -85 17 -85
12 0 13 -3 4 -14 -6 -7 -9 -20 -5 -29 3 -8 1 -18 -5 -21 -6 -4 -6 -18 0 -39 5
-17 9 -45 9 -60 0 -19 4 -26 12 -21 8 5 9 2 5 -10 -4 -10 -7 -20 -7 -22 0 -3
-4 -2 -10 1 -5 3 -10 2 -10 -4 0 -5 5 -13 10 -16 6 -4 8 -16 5 -28 -5 -18 -4
-19 5 -7 9 12 10 4 5 -33 -5 -37 -3 -48 9 -53 9 -3 16 -10 16 -16 0 -5 -4 -7
-10 -3 -5 3 -8 -15 -7 -45 0 -27 5 -50 10 -50 5 0 7 -6 4 -12 -2 -7 0 -28 5
-45 6 -21 5 -48 -2 -74 -9 -34 -9 -44 5 -59 11 -12 14 -31 11 -64 -2 -34 1
-49 10 -53 8 -3 11 -10 7 -16 -4 -6 -5 -33 -4 -59 2 -34 -1 -48 -11 -48 -10 0
-10 -2 2 -9 8 -6 17 -8 21 -5 9 5 2 -82 -7 -98 -4 -6 -3 -8 3 -5 6 4 17 -1 24
-10 8 -9 9 -14 3 -10 -15 9 -24 -49 -11 -62 6 -6 10 -43 11 -83 1 -40 5 -76
10 -79 13 -10 -4 -31 -18 -22 -7 4 -5 1 4 -7 26 -24 33 -80 14 -101 -15 -17
-15 -19 -1 -24 11 -5 14 -16 10 -46 -5 -32 -3 -38 9 -34 18 7 44 -20 28 -30
-5 -3 -10 -15 -10 -25 0 -10 -3 -20 -7 -23 -5 -2 -3 -2 4 -1 19 5 24 -12 8
-26 -8 -7 -24 -10 -36 -7 -16 4 -18 3 -8 -9 6 -8 18 -14 26 -14 8 0 13 -6 10
-12 -2 -7 2 -17 9 -23 12 -9 18 -34 15 -62 0 -7 -9 -13 -18 -13 -13 0 -15 -2
-5 -8 7 -5 10 -16 7 -24 -3 -8 1 -23 11 -32 9 -9 14 -19 11 -22 -2 -3 -12 2
-21 11 -9 9 -21 13 -28 9 -8 -5 -9 -2 -5 9 4 11 2 14 -9 10 -18 -7 -18 2 2 32
9 14 15 26 13 26 -21 8 -59 2 -59 -8 0 -7 5 -13 10 -13 6 0 10 -7 10 -16 0 -8
-4 -12 -10 -9 -17 10 -11 -7 8 -22 12 -10 14 -16 5 -19 -7 -3 -13 -15 -13 -25
0 -13 4 -17 11 -13 8 5 9 2 2 -11 -11 -19 -6 -58 7 -50 4 3 7 -22 5 -55 -1
-34 4 -82 11 -108 7 -26 13 -44 13 -40 1 4 13 3 27 -2 20 -8 25 -7 21 2 -19
47 -20 51 -10 45 6 -4 18 2 27 12 14 15 15 20 4 24 -8 2 -8 3 2 2 8 0 13 -8
10 -16 -6 -17 -1 -161 6 -168 3 -3 9 1 14 9 8 13 10 13 10 -1 0 -9 -7 -20 -16
-23 -23 -9 -24 -8 -24 13 0 11 -4 23 -10 26 -5 3 -10 1 -10 -6 0 -9 -3 -9 -14
0 -19 16 -29 -11 -16 -45 6 -14 10 -43 10 -65 0 -21 3 -39 8 -39 4 0 8 -21 8
-48 1 -26 11 -96 23 -157 12 -60 30 -166 42 -235 11 -69 26 -154 34 -190 8
-36 21 -103 30 -150 9 -47 32 -150 52 -230 35 -145 47 -210 63 -350 5 -41 13
-113 19 -160 17 -130 39 -399 47 -558 6 -120 5 -145 -8 -160 -35 -39 -40 -60
-22 -94 9 -18 22 -38 29 -44 19 -19 27 -174 27 -478 0 -148 3 -264 8 -257 6
10 9 10 12 1 3 -9 16 -7 48 9 55 26 70 26 70 1 0 -20 24 -28 34 -12 3 5 8 84
11 177 5 130 12 190 30 261 19 71 26 130 31 260 6 181 27 313 67 429 62 178
72 169 63 -52 -4 -98 -8 -194 -10 -213 -12 -136 -15 -253 -7 -235 5 11 10 16
10 11 2 -18 41 38 41 58 0 17 -2 18 -10 6 -7 -11 -10 -11 -10 -2 0 7 7 24 16
37 9 13 13 29 10 34 -4 5 -1 13 5 16 6 4 8 18 5 31 -4 13 -2 24 3 24 5 0 11 7
14 14 4 10 1 13 -9 9 -18 -7 -20 37 -2 55 9 9 9 12 -2 12 -10 0 -9 5 4 19 11
12 13 21 7 25 -6 4 -7 14 -4 22 5 13 7 13 14 2 6 -9 9 -9 9 -1 0 6 -4 15 -10
18 -13 8 -13 62 0 70 8 5 7 12 -2 23 -10 12 -10 16 0 19 6 3 12 20 12 39 0 21
4 33 10 29 17 -10 32 5 20 20 -7 8 -7 15 -1 19 5 4 12 2 16 -4 8 -13 55 -13
55 -1 0 6 -10 17 -22 26 -21 15 -22 17 -5 26 9 5 17 17 17 24 0 8 5 15 11 15
6 0 10 19 9 48 -3 73 -1 82 14 82 8 0 17 15 20 36 4 19 13 37 21 40 7 3 13 18
13 32 0 15 7 54 16 87 9 32 16 65 16 73 0 7 9 25 19 40 18 24 41 122 69 297 6
33 13 68 17 78 5 13 2 17 -13 17 -14 0 -28 -18 -52 -65 -18 -36 -32 -77 -32
-90 0 -14 -4 -25 -8 -25 -4 0 -5 -11 -2 -25 2 -15 0 -25 -8 -25 -7 0 -9 8 -5
20 5 14 2 20 -9 20 -9 0 -16 -6 -16 -13 0 -18 -28 -75 -41 -82 -5 -4 -9 -15
-9 -25 0 -10 -4 -20 -8 -22 -4 -2 -22 -30 -38 -63 -17 -33 -42 -80 -54 -105
-13 -25 -28 -51 -34 -58 -5 -8 -11 -24 -13 -35 -2 -12 -9 -26 -16 -32 -7 -5
-16 -18 -20 -27 -3 -10 -13 -18 -22 -18 -8 0 -15 -5 -15 -11 0 -5 5 -7 11 -3
7 4 7 -1 -1 -16 -9 -17 -14 -19 -20 -10 -6 9 -12 5 -22 -15 -8 -15 -17 -24
-20 -19 -3 5 3 81 13 169 19 168 24 297 12 309 -5 4 -13 43 -18 87 -10 69 -9
81 4 89 9 5 12 12 8 16 -5 5 -12 2 -16 -5 -5 -7 -14 -10 -20 -7 -6 4 -9 12 -5
17 3 6 -6 21 -21 35 -14 13 -23 29 -19 35 3 6 8 86 10 177 2 104 10 196 21
244 13 62 14 83 5 103 -7 14 -12 72 -12 128 0 56 -5 156 -11 222 -6 75 -9 388
-7 830 5 1180 3 1408 -9 1430 -8 15 -8 26 -1 39 7 13 7 17 0 12 -12 -7 -11 58
1 70 4 4 7 12 7 18 0 6 -5 4 -11 -4 -8 -11 -9 -1 -5 36 4 29 3 78 0 110 -7 57
-7 57 -25 35 -22 -27 -33 -22 -58 29 -16 34 -16 38 -2 32 13 -5 14 -3 3 10 -8
10 -25 14 -52 12 -22 -2 -40 1 -40 6 0 6 10 10 23 10 19 0 22 5 21 43 0 24 6
50 14 60 13 15 13 17 -1 17 -13 0 -16 8 -13 43 4 42 -8 72 -25 61 -5 -3 -6 2
-3 10 3 9 1 16 -6 16 -6 0 -8 5 -5 11 5 7 14 4 27 -8 20 -18 20 -17 13 32 -4
28 -12 56 -17 63 -7 8 -7 16 1 26 12 15 5 46 -11 46 -6 0 -7 -7 -4 -16 4 -10
1 -14 -6 -11 -7 2 -14 19 -15 38 -1 19 -2 42 -2 52 -1 9 -8 17 -16 17 -8 0
-15 6 -15 13 0 8 11 12 30 11 26 -2 30 1 30 23 0 17 7 27 20 30 24 6 21 29 -4
27 -12 -2 -16 4 -14 20 2 13 9 20 18 17 47 -12 60 -12 60 -1 0 7 -7 10 -15 6
-8 -3 -22 2 -31 11 -11 11 -13 18 -5 21 6 2 11 8 11 12 0 5 12 21 26 35 20 20
24 32 19 55 -3 16 -7 42 -7 59 -1 17 -4 31 -8 31 -4 0 -5 21 -2 46 3 33 1 49
-9 55 -12 8 -12 10 0 18 12 8 12 12 3 24 -9 10 -11 38 -6 92 6 70 5 77 -10 72
-9 -4 -16 -2 -16 3 0 6 4 10 9 10 14 0 20 39 7 43 -8 3 -8 9 0 23 8 14 8 24 0
37 -8 13 -8 20 3 27 11 6 12 12 4 22 -5 7 -11 42 -12 78 -1 75 -12 192 -17
202 -3 4 -6 58 -9 120 -6 143 -14 225 -26 257 -6 14 -6 27 -1 30 5 3 8 15 6
26 -2 11 -6 54 -9 95 -4 75 -12 168 -20 245 -2 22 -9 90 -15 150 -6 61 -15
128 -20 150 -5 22 -10 59 -10 83 0 23 -5 42 -11 42 -6 0 -8 9 -4 20 4 12 2 26
-3 33 -6 7 -12 38 -14 70 -2 42 -7 57 -17 57 -11 0 -12 3 -5 10 12 12 -27 205
-45 223 -5 5 -7 16 -3 25 4 11 1 14 -11 9 -9 -3 -17 -2 -17 3 0 6 3 10 8 10 4
0 6 19 4 41 -3 28 -7 37 -13 28 -7 -11 -9 -9 -10 6 -2 55 -11 90 -24 98 -8 4
-15 22 -15 38 0 31 -32 84 -44 72 -3 -3 -6 -1 -6 6 0 7 -5 9 -11 5 -8 -4 -9 3
-5 23 5 21 2 34 -9 43 -8 7 -15 23 -15 36 0 31 -13 37 -29 12z"/>
<path d="M6985 16721 c0 -27 2 -49 5 -49 16 1 19 -5 10 -26 -6 -18 -5 -28 6
-36 17 -15 19 -40 2 -40 -9 -1 -8 -4 2 -13 10 -8 15 -30 15 -65 -1 -29 3 -56
7 -58 4 -3 8 -20 8 -39 0 -18 7 -62 16 -97 14 -55 21 -103 26 -183 2 -20 15
-35 31 -35 5 0 5 6 0 12 -4 7 -6 25 -4 40 1 15 -1 33 -5 39 -11 18 -11 83 0
91 6 4 5 12 -2 20 -6 8 -14 32 -18 53 -3 21 -10 49 -15 63 -5 13 -7 28 -3 33
3 5 1 9 -4 9 -14 0 -32 94 -20 101 7 4 6 14 -1 28 -12 21 -14 35 -29 145 -9
65 -27 70 -27 7z"/>
<path d="M8826 16099 c-18 -62 -31 -145 -30 -201 0 -37 -4 -62 -8 -55 -5 7 -7
-3 -7 -23 1 -19 -6 -55 -15 -78 -13 -35 -16 -76 -15 -200 1 -114 -2 -171 -13
-207 -8 -27 -13 -55 -11 -62 2 -7 -1 -22 -8 -35 -7 -12 -18 -45 -24 -73 l-13
-50 -2 50 c-1 28 -4 43 -7 35 -3 -8 -11 -19 -17 -23 -8 -6 -7 -10 2 -14 6 -2
12 -12 12 -21 0 -12 -5 -10 -25 8 -14 13 -25 19 -26 14 0 -5 -4 0 -9 11 -6 14
-9 1 -9 -44 -1 -35 2 -61 6 -57 4 4 8 15 8 24 4 60 6 65 14 57 5 -6 11 -33 14
-61 4 -42 2 -52 -14 -62 -15 -9 -18 -19 -13 -40 4 -15 11 -30 17 -33 5 -4 5
-9 -2 -13 -6 -4 -11 -2 -11 4 0 6 -4 8 -10 5 -13 -8 -3 -189 11 -193 6 -3 7
-8 0 -16 -6 -7 -7 -23 -4 -37 l7 -24 8 25 c4 14 6 -18 4 -75 -3 -55 -11 -119
-20 -142 -16 -44 -22 -95 -30 -253 -5 -81 -4 -88 5 -50 6 25 15 53 20 62 5 10
9 36 9 58 0 22 5 40 10 40 7 0 7 6 1 19 -6 10 -8 21 -5 24 6 5 12 48 13 85 1
13 4 21 9 18 4 -2 8 21 8 52 1 69 21 224 36 274 6 20 8 48 4 62 -4 18 -2 26 7
26 10 0 14 16 13 60 0 35 4 64 12 72 6 6 12 18 12 26 0 12 -3 12 -17 1 -17
-13 -17 -13 -1 7 11 13 15 28 11 43 -4 18 -3 22 6 16 10 -5 12 7 10 50 -2 38
2 59 10 65 8 5 10 13 5 21 -10 18 -5 83 7 87 6 3 6 9 0 16 -8 9 -6 45 3 117
25 179 37 300 31 310 -4 5 -1 9 4 9 6 0 11 16 11 36 0 25 -3 33 -12 28 -8 -5
-7 0 2 11 15 19 21 75 8 75 -5 0 -8 7 -8 16 0 9 5 12 12 8 6 -4 9 -3 6 2 -3 5
-2 34 2 64 7 52 5 79 -4 49z"/>
<path d="M8579 15995 c-12 -19 -9 -169 4 -275 8 -58 12 -145 10 -195 -3 -49
-1 -86 3 -82 5 4 14 -9 20 -30 9 -27 12 -32 13 -15 1 12 4 22 9 22 14 0 12
108 -3 120 -9 8 -12 22 -8 41 3 16 0 50 -7 76 -20 80 -22 94 -29 223 -3 69 -9
121 -12 115z"/>
<path d="M7154 15975 c-4 -11 -11 -12 -24 -5 -15 8 -17 5 -14 -29 2 -21 8 -57
13 -81 5 -24 8 -47 5 -51 -2 -4 3 -10 12 -13 12 -4 13 -10 6 -19 -7 -8 -5 -34
4 -82 40 -190 45 -218 58 -320 7 -55 11 -105 9 -111 -3 -7 0 -15 6 -19 6 -3
11 -19 11 -36 0 -16 4 -29 10 -29 5 0 6 -8 3 -17 -5 -12 -2 -15 10 -10 10 4
23 -3 36 -18 24 -31 31 -31 31 0 0 18 -5 25 -20 25 -28 0 -50 49 -50 114 0 34
-5 56 -12 59 -9 4 -9 8 -3 14 13 11 16 43 3 43 -5 0 -6 5 -3 10 3 6 1 10 -4
10 -6 0 -11 10 -11 22 0 21 0 21 14 2 8 -10 17 -16 20 -13 3 3 -3 14 -13 25
-10 12 -21 30 -25 42 -3 12 -9 32 -12 44 -5 17 -3 20 12 14 17 -5 16 -4 -2 12
-11 9 -19 23 -16 30 2 6 -2 12 -9 12 -10 0 -10 3 -1 12 15 15 16 32 2 23 -19
-12 -10 7 13 26 l22 20 -22 -11 c-25 -12 -26 -8 -26 68 0 22 -3 29 -8 20 -9
-14 -9 -13 -14 62 -1 22 -7 34 -15 32 -7 -2 -10 3 -7 10 3 7 8 21 12 31 4 9 3
17 -3 17 -5 0 -12 9 -15 20 -4 15 0 20 14 20 12 0 19 7 19 20 0 24 -8 26 -16
5z"/>
<path d="M10552 15665 c-12 -14 -31 -45 -43 -70 -12 -25 -25 -48 -30 -50 -4
-3 -6 -12 -2 -21 3 -9 0 -14 -7 -12 -6 2 -19 -7 -27 -19 -10 -15 -11 -23 -4
-23 6 0 2 -9 -9 -20 -11 -11 -20 -27 -20 -36 0 -8 -4 -13 -9 -10 -5 4 -7 -3
-4 -13 3 -13 -2 -23 -16 -30 -11 -6 -18 -17 -15 -25 3 -7 -2 -19 -11 -26 -8
-7 -15 -18 -15 -25 0 -8 -5 -15 -11 -17 -5 -2 -11 -11 -13 -20 -1 -10 -5 -21
-9 -24 -4 -4 -7 -15 -7 -25 0 -10 -9 -23 -20 -29 -10 -6 -25 -28 -31 -50 -7
-22 -18 -45 -26 -51 -7 -6 -13 -19 -13 -29 0 -10 -7 -23 -15 -30 -8 -7 -15
-21 -15 -31 0 -11 -4 -19 -10 -19 -5 0 -7 8 -4 18 5 14 4 15 -5 2 -6 -8 -8
-23 -5 -32 3 -12 0 -18 -10 -18 -8 0 -18 -5 -22 -11 -4 -8 1 -9 16 -4 22 7 22
7 2 -13 -10 -10 -28 -33 -38 -51 -10 -17 -22 -31 -26 -31 -4 0 -8 -7 -8 -15 0
-9 -9 -32 -19 -53 -19 -37 -21 -43 -21 -62 0 -5 -5 -10 -11 -10 -6 0 -9 9 -6
20 3 11 3 20 1 20 -7 0 -29 -63 -26 -73 1 -5 -6 -11 -16 -13 -20 -6 -86 -107
-72 -112 5 -2 6 -10 3 -18 -3 -7 -9 -11 -14 -8 -11 6 -32 -44 -23 -57 3 -5 10
-9 15 -9 6 0 7 5 4 10 -3 6 0 13 8 16 9 3 18 16 21 30 4 13 11 24 17 24 7 0 9
-9 5 -22 -3 -13 -6 -29 -6 -37 0 -8 -6 -11 -16 -7 -10 4 -13 2 -8 -6 4 -6 -1
-17 -10 -24 -10 -7 -15 -18 -11 -25 6 -8 10 -7 17 5 5 9 13 14 19 11 5 -4 9 1
9 9 0 9 9 31 20 51 11 20 20 44 20 55 0 11 6 20 13 20 10 1 36 47 61 110 4 8
15 29 25 45 11 17 20 35 20 42 1 7 12 28 25 48 14 20 27 49 31 65 4 17 11 30
16 30 5 0 9 6 9 14 0 8 3 16 8 18 4 2 19 28 35 58 15 30 49 96 75 145 110 206
201 385 195 385 -3 0 1 7 8 16 24 29 92 164 86 170 -2 2 -13 -7 -25 -21z"/>
<path d="M6197 15434 c3 -9 -3 -14 -18 -14 -18 0 -20 -3 -11 -12 9 -9 15 -9
24 0 22 22 34 13 30 -23 -3 -22 -10 -35 -19 -35 -8 0 -13 -6 -10 -12 2 -7 11
-12 21 -10 9 2 16 -3 16 -11 0 -10 -8 -13 -25 -9 -24 4 -25 2 -19 -29 4 -19
12 -43 17 -54 10 -18 11 -19 15 -2 3 14 7 16 18 6 18 -15 19 -55 1 -43 -7 5
-2 -1 12 -13 20 -18 22 -24 12 -36 -8 -10 -9 -17 -1 -22 5 -3 10 2 10 11 0 29
20 2 22 -30 2 -16 11 -34 20 -40 10 -6 18 -17 18 -24 0 -9 6 -9 24 3 16 11 26
13 31 6 3 -6 0 -11 -8 -11 -26 0 -38 -25 -22 -46 8 -10 15 -29 15 -42 0 -19 4
-22 23 -17 17 5 19 4 7 -5 -13 -9 -10 -15 20 -40 19 -17 28 -30 21 -30 -9 0
-8 -4 3 -15 8 -9 13 -21 10 -29 -3 -7 2 -19 11 -26 8 -7 15 -21 15 -31 0 -11
6 -18 12 -16 7 1 14 -9 16 -22 3 -18 0 -22 -12 -18 -9 4 -16 2 -16 -4 0 -6 15
-9 33 -7 27 2 33 -1 35 -20 2 -13 -3 -25 -12 -28 -9 -3 -16 -13 -16 -21 0 -12
3 -13 15 -3 16 14 35 6 35 -16 0 -8 8 -14 18 -14 15 0 15 -2 2 -11 -11 -8 -12
-12 -2 -16 6 -2 12 -11 12 -18 0 -7 9 -15 20 -18 16 -4 19 -11 15 -30 -6 -21
-2 -26 22 -35 15 -6 23 -11 16 -11 -16 -1 -9 -46 11 -66 9 -9 16 -26 17 -38 0
-12 3 -17 5 -11 6 15 93 -26 94 -44 0 -10 -4 -10 -20 0 -11 7 -20 16 -20 20 0
5 -9 8 -20 8 -23 0 -27 -15 -5 -24 17 -6 21 -36 5 -36 -5 0 -10 -4 -10 -10 0
-5 9 -10 20 -10 11 0 20 5 20 10 0 6 4 10 8 10 9 0 34 -62 27 -68 -2 -3 -8 5
-13 18 -8 21 -9 21 -16 5 -4 -11 0 -25 10 -36 10 -11 13 -19 8 -19 -5 0 -2 -5
8 -10 10 -6 14 -18 11 -30 -3 -11 0 -20 6 -20 6 0 11 -4 11 -10 0 -5 -7 -10
-15 -10 -17 0 -20 -16 -5 -25 6 -3 10 -1 10 5 0 18 21 0 31 -28 l11 -27 13 30
13 30 -3 -32 c-2 -18 -7 -38 -11 -44 -4 -8 4 -22 22 -37 16 -13 24 -21 17 -18
-25 14 -21 -13 8 -42 20 -21 26 -32 17 -35 -10 -4 -10 -8 1 -15 8 -6 14 -25
13 -46 -1 -34 1 -36 28 -36 17 0 30 -5 30 -11 0 -7 -10 -9 -25 -5 -14 4 -25 2
-25 -4 0 -5 9 -10 20 -10 19 0 25 -14 21 -47 -1 -7 3 -13 10 -13 6 0 9 -8 6
-20 -3 -13 0 -20 9 -20 8 0 15 -10 16 -22 0 -13 2 -29 2 -37 1 -8 7 -16 14
-19 6 -2 9 -8 6 -13 -3 -6 -11 -5 -20 2 -10 8 -14 8 -14 1 0 -11 39 -37 44
-30 2 2 10 18 19 35 15 32 15 33 -5 22 -18 -10 -20 -9 -15 5 4 9 2 16 -4 16
-6 0 -7 5 -4 10 3 6 -4 25 -16 43 -12 17 -16 26 -9 20 8 -7 25 -13 40 -13 21
1 18 3 -15 15 -22 8 -41 15 -42 15 -2 0 -3 4 -3 9 0 5 11 12 25 15 16 4 25 13
25 26 0 26 -16 26 -23 0 -3 -11 -11 -20 -19 -20 -11 0 -11 2 1 9 10 7 11 13 1
30 -6 12 -12 35 -12 52 -1 32 -12 38 -22 12 -5 -13 -9 -14 -19 -3 -9 9 -9 14
-1 17 7 2 10 13 7 23 -3 11 0 20 6 20 6 0 11 -8 12 -17 0 -14 2 -14 9 3 13 34
30 39 30 10 0 -14 4 -26 9 -26 5 0 6 12 2 28 -6 20 -14 27 -31 27 -13 0 -25 6
-27 13 -3 6 3 12 13 12 14 0 15 3 6 12 -13 13 -42 -6 -42 -29 0 -19 -32 -13
-38 7 -5 13 -3 13 13 0 17 -14 18 -13 12 2 -4 11 0 21 11 27 15 9 15 11 -6 29
-12 11 -22 26 -22 35 0 9 -8 21 -17 26 -15 8 -15 11 -3 12 8 1 18 1 23 0 4 0
7 4 7 10 0 5 -10 9 -22 7 -17 -2 -23 2 -22 15 1 9 -3 17 -8 17 -7 0 -6 5 1 14
8 10 8 16 -3 25 -11 9 -15 9 -18 -1 -3 -9 -6 -9 -12 0 -4 7 -2 12 3 12 6 0 11
7 11 16 0 14 -3 14 -15 4 -11 -9 -19 -10 -26 -3 -8 8 -7 13 0 17 16 10 13 36
-4 36 -8 0 -15 5 -15 10 0 6 5 10 10 10 6 0 10 6 10 14 0 9 -7 13 -19 11 -18
-3 -19 1 -16 44 3 48 -7 82 -22 68 -4 -5 -1 -12 7 -17 8 -5 11 -12 7 -16 -12
-13 -30 13 -33 48 -3 32 -3 32 12 13 15 -20 15 -19 12 5 -3 22 -8 25 -40 25
-20 0 -40 4 -45 9 -4 5 -3 6 5 2 13 -7 34 32 25 47 -8 13 -25 -4 -19 -19 6
-16 -10 -19 -19 -3 -4 6 1 16 11 24 16 11 16 15 4 30 -11 13 -11 21 -2 35 9
15 7 21 -14 36 -13 10 -24 24 -24 31 0 17 -20 17 -21 1 -2 -20 -2 -21 5 -56 3
-21 2 -31 -4 -27 -6 3 -10 19 -10 36 0 16 -5 29 -12 29 -9 0 -9 3 0 12 7 7 12
20 12 29 0 10 6 20 13 22 6 3 -1 4 -17 4 -16 -1 -31 4 -33 11 -3 7 1 10 10 6
8 -3 18 -1 22 5 4 7 0 8 -10 5 -11 -5 -18 0 -21 13 -3 11 -17 26 -30 33 -18
10 -21 16 -13 27 6 7 17 13 23 12 7 0 7 -2 -1 -5 -7 -3 -9 -12 -6 -20 7 -19
23 -18 23 2 0 8 5 12 10 9 21 -13 9 13 -12 28 -20 14 -21 18 -8 27 12 8 12 10
-5 7 -11 -1 -25 -6 -31 -10 -7 -4 -14 0 -18 8 -3 10 1 15 13 15 14 0 17 6 13
31 -2 17 -11 33 -18 36 -8 3 -12 9 -9 13 3 4 -2 11 -10 14 -13 4 -13 2 -5 -14
17 -32 11 -47 -10 -21 -22 26 -26 51 -9 51 6 0 1 16 -10 36 -12 20 -20 39 -17
42 9 8 -14 43 -25 37 -5 -4 -12 2 -16 12 -3 10 -15 30 -25 45 -10 14 -17 32
-15 40 2 7 2 10 0 6 -11 -20 -23 -4 -23 30 0 23 -3 32 -8 24 -5 -7 -16 -10
-25 -6 -18 7 -24 -11 -7 -21 5 -3 15 -15 20 -25 8 -15 7 -18 -3 -14 -17 6 -39
52 -32 65 4 5 1 9 -4 9 -6 0 -11 4 -11 9 0 5 9 7 20 4 11 -3 20 0 20 6 0 15
-33 14 -48 -1 -6 -6 -15 -9 -19 -5 -3 4 2 14 13 21 18 14 18 16 2 33 -10 9
-18 12 -18 6 0 -6 3 -13 8 -16 4 -2 0 -2 -8 1 -8 2 -21 5 -27 5 -19 1 -16 7
10 16 13 5 23 18 24 30 2 22 -11 28 -22 11 -14 -22 -26 4 -20 43 6 38 4 43
-19 53 -20 9 -23 9 -19 -2z"/>
<path d="M8993 15272 c-7 -5 -13 -29 -14 -55 -1 -26 -8 -52 -16 -59 -7 -6 -11
-19 -8 -29 4 -11 1 -19 -5 -19 -7 0 -10 -7 -6 -15 3 -8 -1 -30 -9 -49 -8 -20
-15 -54 -15 -76 0 -22 -4 -40 -10 -40 -6 0 -6 -10 1 -27 5 -14 7 -53 4 -85 -4
-47 -2 -58 10 -58 8 0 15 -5 15 -11 0 -17 17 -1 23 21 3 13 1 18 -6 13 -7 -3
-3 3 7 15 18 21 13 28 -16 23 -5 0 -8 10 -8 24 0 14 5 25 10 25 6 0 10 -7 8
-16 -2 -12 6 -18 25 -21 18 -2 26 0 22 7 -3 5 -13 10 -20 10 -9 0 -12 6 -8 15
3 9 2 15 -3 14 -28 -5 -41 3 -41 25 0 18 4 22 19 18 15 -4 17 -7 6 -13 -9 -6
-4 -9 15 -9 27 0 36 13 17 25 -18 11 -11 45 9 45 10 0 21 9 24 20 3 13 0 20
-9 20 -8 0 -14 -7 -14 -15 0 -8 -4 -15 -10 -15 -15 0 -12 15 10 43 20 25 24
80 5 74 -5 -2 -9 -16 -7 -31 2 -18 -1 -25 -7 -21 -17 10 -13 65 4 65 8 0 15 5
15 10 0 6 -5 10 -11 10 -5 0 -7 5 -4 11 4 6 14 8 24 5 12 -5 11 -2 -3 9 -11 8
-14 15 -8 15 7 0 12 14 12 31 0 16 -4 28 -9 24 -5 -3 -12 -1 -16 5 -11 17 22
11 41 -7 17 -17 17 -17 12 4 -3 13 -2 26 3 29 5 3 7 10 3 15 -3 5 -10 7 -15 3
-5 -3 -7 -9 -4 -14 3 -5 1 -11 -5 -15 -6 -3 -14 3 -18 14 -4 13 -12 17 -19 13z"/>
<path d="M7276 15084 c-10 -27 -7 -84 5 -84 8 0 8 -5 -1 -15 -10 -12 -10 -15
0 -15 7 0 10 -7 6 -15 -3 -8 -2 -15 2 -15 4 0 8 -10 8 -22 1 -13 4 -39 7 -58
4 -19 11 -63 16 -97 5 -34 13 -68 17 -75 5 -7 7 -25 6 -39 -2 -14 4 -31 12
-39 9 -7 16 -18 16 -24 0 -6 -5 -4 -10 4 -7 11 -9 6 -7 -17 1 -23 7 -33 18
-33 19 0 24 57 7 78 -6 7 -11 33 -11 58 0 33 -4 44 -16 44 -12 0 -13 2 -3 8 7
5 10 16 6 25 -3 10 -1 17 5 17 13 0 15 27 3 32 -5 2 -12 16 -16 31 -9 39 15
31 29 -9 9 -28 25 -47 33 -39 2 1 -1 11 -6 22 -6 10 -18 36 -28 58 -9 22 -19
34 -22 27 -5 -16 -22 -6 -22 14 0 8 8 14 18 15 10 0 12 3 5 6 -8 3 -11 14 -7
30 6 23 4 25 -14 21 -16 -5 -21 0 -26 24 -3 17 -6 43 -6 59 0 32 -15 47 -24
23z"/>
<path d="M8886 14721 c-3 -21 -13 -41 -21 -45 -8 -3 -15 -10 -15 -17 0 -6 7
-9 15 -5 9 3 19 -3 26 -17 9 -18 9 -20 -2 -9 -26 24 -48 14 -54 -25 -3 -21 -9
-54 -13 -75 -9 -36 2 -73 17 -64 5 3 6 -6 3 -19 -5 -28 -22 -34 -22 -7 0 9 -5
24 -11 32 -8 12 -10 8 -7 -16 2 -17 -2 -36 -9 -43 -7 -6 -13 -22 -13 -35 0
-13 -5 -37 -11 -55 -6 -18 -8 -35 -4 -39 4 -4 10 -1 12 6 3 6 8 12 13 12 4 0
3 -11 -3 -25 -7 -14 -17 -23 -24 -21 -12 5 -28 -42 -18 -53 4 -3 13 3 21 13
12 17 14 17 20 3 3 -9 10 -14 15 -11 5 3 9 0 9 -5 0 -6 -11 -11 -25 -11 -18 0
-25 -5 -25 -19 0 -35 19 -71 37 -71 11 0 5 -7 -16 -17 -25 -13 -37 -14 -51 -5
-16 10 -18 5 -23 -41 -3 -29 -12 -99 -20 -157 -8 -58 -15 -112 -15 -120 -1 -8
-4 -33 -7 -55 -3 -22 -7 -52 -9 -66 -2 -14 -5 -30 -9 -35 -3 -6 -5 -25 -5 -42
1 -18 -4 -43 -10 -55 -5 -12 -15 -60 -21 -106 -6 -47 -15 -87 -19 -90 -5 -3
-8 -33 -7 -66 1 -33 -2 -73 -6 -90 -4 -16 -10 -57 -13 -90 -3 -33 -10 -94 -16
-135 -5 -41 -10 -108 -10 -148 0 -40 -4 -92 -9 -115 -14 -61 -20 -147 -10
-147 5 0 9 7 9 15 0 8 5 15 10 15 7 0 7 7 -1 21 -10 19 -8 20 10 14 21 -6 27
8 23 58 -1 10 2 15 8 12 6 -3 7 1 4 9 -4 11 0 16 10 16 9 0 16 8 16 18 1 21
25 54 33 45 4 -3 7 1 7 9 0 9 5 18 10 20 6 2 12 21 14 43 2 21 9 41 15 43 15
5 14 29 -1 35 -10 4 -10 8 1 15 7 5 10 15 6 22 -7 12 24 41 37 34 4 -3 5 2 2
10 -4 10 -1 16 10 16 8 0 23 14 32 32 15 30 15 32 -2 45 -10 7 -13 13 -8 13 6
0 19 6 29 14 18 13 18 14 -9 9 -21 -4 -27 -2 -22 6 4 6 12 8 18 5 7 -5 9 -1 5
9 -3 9 -1 18 6 21 7 2 3 5 -8 5 -29 1 -47 -13 -40 -31 4 -9 2 -19 -4 -22 -6
-4 -8 -13 -4 -21 3 -10 -1 -15 -12 -15 -10 0 -15 5 -12 13 7 19 -18 38 -33 24
-10 -9 -11 -7 -5 12 11 35 13 93 4 118 -5 15 -3 25 7 34 15 13 15 36 -1 99 -5
18 0 32 17 50 18 19 23 36 23 80 0 30 4 62 7 70 12 27 15 79 5 83 -6 2 -4 13
4 27 7 14 12 28 11 33 -1 4 4 7 12 7 7 0 19 7 26 15 22 27 29 5 25 -78 -2 -45
-1 -70 1 -54 3 15 10 27 15 27 5 0 9 8 9 18 0 20 33 56 42 47 3 -3 3 6 0 20
-2 14 -9 28 -14 31 -5 3 1 14 13 25 19 17 20 19 5 25 -16 6 -16 8 0 25 11 12
14 27 10 43 -4 16 -1 30 9 40 8 8 15 19 15 25 0 5 8 14 18 20 16 9 16 11 -3
25 -16 12 -17 15 -4 16 24 0 25 75 1 92 -10 7 -21 24 -25 38 -5 22 -5 23 7 8
18 -24 24 -23 24 7 0 43 -50 21 -56 -25 -2 -14 -8 -30 -14 -37 -6 -8 -3 -13 9
-16 17 -4 17 -5 1 -6 -13 -1 -18 -10 -19 -33 -2 -45 -6 -78 -13 -111 -4 -16
-8 -49 -10 -73 -3 -35 0 -44 13 -45 10 0 7 -4 -9 -11 -14 -6 -29 -10 -34 -9
-5 1 -15 -7 -22 -17 -7 -11 -26 -21 -41 -24 -23 -3 -28 0 -29 19 -1 13 2 23 8
23 5 0 6 5 3 10 -7 12 12 40 26 40 5 0 6 -7 3 -15 -4 -10 0 -15 11 -15 12 0
16 6 12 19 -3 12 3 27 14 37 10 9 19 22 19 28 0 6 -5 4 -10 -4 -7 -11 -10 -2
-10 31 0 33 5 49 15 53 20 7 19 26 -1 26 -8 0 -13 4 -10 9 4 5 7 28 8 50 1 39
7 45 34 42 8 -1 11 16 11 48 -1 28 -5 45 -9 38 -6 -9 -10 -8 -18 3 -7 11 -5
16 5 18 17 4 20 18 6 27 -10 6 -7 62 3 73 3 3 6 -11 6 -30 0 -25 5 -38 18 -43
14 -5 15 -4 5 6 -15 15 -18 69 -4 69 4 0 7 19 6 43 -3 43 7 84 19 80 19 -8 28
-2 16 12 -7 8 -9 15 -4 15 5 0 2 5 -6 11 -12 8 -10 9 8 4 13 -4 22 -2 22 4 0
6 -7 11 -15 11 -8 0 -15 5 -15 10 0 6 9 10 20 10 11 0 20 5 20 11 0 6 -9 9
-20 6 -18 -5 -18 -4 2 23 21 29 17 55 -8 46 -8 -3 -14 1 -14 9 0 18 1 18 34 5
29 -11 34 0 10 24 -8 9 -12 21 -9 26 4 6 1 18 -7 27 -7 9 -8 14 -2 10 7 -4 17
-1 23 7 9 11 9 15 -1 18 -11 4 -11 8 0 21 12 14 9 18 -16 31 l-30 15 -6 -38z"/>
<path d="M8239 14484 c-1 -71 3 -309 6 -344 1 -14 3 -125 4 -248 0 -124 5
-221 10 -218 5 3 9 40 9 82 1 46 6 80 13 84 8 6 8 13 0 28 -15 28 -14 89 2 95
9 3 9 9 0 28 -7 13 -15 78 -17 144 -14 362 -25 494 -27 349z"/>
<path d="M7381 14419 c0 -28 -3 -55 -7 -60 -3 -5 0 -8 7 -7 8 2 14 -11 16 -37
2 -22 8 -53 13 -68 5 -15 7 -42 3 -59 -4 -20 -1 -33 8 -38 7 -5 13 -27 13 -49
1 -23 4 -41 8 -41 4 0 6 -13 4 -30 -2 -16 0 -30 5 -30 4 0 8 -8 8 -17 0 -10 3
-40 6 -68 3 -27 7 -70 9 -95 1 -25 7 -54 12 -65 5 -11 9 -50 9 -88 0 -42 4
-66 10 -63 7 2 12 -22 14 -63 1 -36 7 -68 12 -72 6 -3 8 -25 5 -47 -2 -23 0
-45 6 -48 5 -3 7 -17 4 -30 -4 -14 -2 -24 4 -24 5 0 10 -5 10 -11 0 -5 -4 -8
-9 -4 -10 6 5 -59 21 -89 6 -10 6 -16 1 -13 -4 3 -6 -19 -5 -49 2 -30 8 -54
14 -54 6 0 8 -9 5 -20 -3 -11 -1 -23 4 -26 5 -3 6 -10 3 -16 -4 -6 0 -14 7
-19 10 -6 11 -11 3 -16 -14 -11 -10 -78 6 -98 11 -13 11 -18 1 -24 -9 -6 -9
-10 2 -19 9 -8 12 -24 8 -54 -4 -27 -1 -53 7 -70 7 -15 11 -41 9 -58 -3 -16
-1 -30 5 -30 5 0 8 -12 6 -27 -2 -23 -7 -27 -27 -25 -15 3 -21 0 -16 -8 4 -7
18 -9 35 -5 27 6 28 4 27 -27 -1 -18 -5 -35 -9 -39 -4 -3 -4 -20 2 -38 5 -17
6 -40 4 -49 -5 -15 -4 -15 5 -2 9 13 11 13 11 -2 0 -10 -4 -18 -10 -18 -5 0
-10 -4 -10 -10 0 -5 7 -10 16 -10 13 0 14 -3 5 -13 -6 -8 -9 -16 -6 -18 2 -3
7 -34 10 -69 4 -36 10 -69 15 -74 5 -5 4 -16 -3 -26 -8 -14 -8 -22 3 -35 12
-14 12 -18 -1 -26 -11 -7 -11 -9 -1 -9 9 0 11 -7 7 -19 -3 -11 1 -25 9 -34 14
-13 14 -16 0 -21 -11 -4 -12 -10 -5 -25 14 -26 21 -193 8 -208 -7 -9 -5 -13 6
-13 10 0 15 -12 15 -46 1 -26 3 -49 6 -51 2 -3 0 -17 -4 -33 -5 -16 -5 -30 0
-32 13 -5 39 -352 43 -585 2 -107 4 -123 19 -127 19 -5 19 -6 20 139 1 82 -12
446 -17 490 -2 17 -4 45 -4 63 -1 19 -5 31 -11 27 -5 -3 -10 -1 -10 4 0 6 5
11 10 11 12 0 1 53 -12 58 -4 2 -6 8 -3 13 11 16 12 84 3 96 -6 7 -7 24 -4 37
3 14 3 27 -2 30 -4 2 -9 19 -10 36 -2 21 1 29 9 24 7 -4 9 0 5 14 -12 37 -27
136 -31 201 -2 35 -6 66 -9 69 -3 3 -1 11 5 19 9 10 8 13 0 13 -7 0 -10 4 -7
9 4 5 0 12 -6 14 -10 4 -9 8 2 16 10 8 12 13 4 19 -6 4 -14 20 -18 35 -5 22
-4 27 6 21 10 -6 10 -4 2 7 -18 22 -24 62 -13 75 12 15 3 54 -13 54 -6 0 -3
12 7 26 11 17 13 29 7 33 -6 3 -12 26 -15 51 -9 87 -29 195 -40 219 -10 19 -8
25 8 37 15 11 16 14 3 14 -9 0 -18 7 -22 15 -3 8 -1 15 4 15 6 0 6 9 1 23 -5
13 -7 35 -4 50 4 21 1 29 -18 36 -19 8 -20 10 -6 10 10 1 16 5 12 10 -3 5 2
16 10 24 19 20 19 28 0 21 -8 -4 -16 -1 -16 5 -5 33 -3 36 31 34 19 -1 26 1
15 3 -70 17 -71 19 -69 99 0 48 -3 75 -10 76 -6 0 0 5 13 10 l24 10 -21 20
c-30 27 -39 69 -18 81 23 13 20 27 -4 21 -14 -4 -20 0 -20 11 0 9 5 16 10 16
6 0 10 7 10 15 0 8 -4 15 -10 15 -5 0 -10 9 -10 20 0 10 -6 25 -14 32 -16 15
-6 59 18 84 9 8 16 20 16 26 0 6 -8 0 -18 -12 -27 -33 -37 -20 -36 44 0 30 -2
53 -6 51 -4 -2 -7 15 -8 37 -1 23 -5 44 -10 47 -12 10 -13 83 -1 98 9 10 8 13
-5 13 -9 0 -16 7 -16 16 0 14 3 14 15 4 23 -19 18 2 -9 33 -23 26 -26 67 -5
67 5 0 4 9 -3 19 -7 11 -16 17 -20 15 -4 -3 -8 -4 -8 -2 -5 32 -14 153 -15
185 0 23 -4 41 -10 40 -5 -1 -11 16 -12 38 -1 22 -2 43 -3 48 -2 4 -3 10 -4
15 -2 13 -17 32 -25 32 -5 0 -9 -23 -10 -51z"/>
<path d="M9633 14005 c-7 -8 -10 -21 -7 -29 3 -9 1 -16 -5 -16 -6 0 -11 6 -11
14 0 8 -4 18 -10 21 -6 3 -7 -1 -4 -10 4 -9 3 -15 -2 -14 -21 4 -28 -2 -14
-11 13 -8 13 -10 -2 -10 -17 0 -38 -28 -38 -49 0 -6 7 -11 15 -11 17 0 19 -18
5 -40 -8 -12 -10 -11 -10 8 0 12 -4 22 -9 22 -13 0 -22 -28 -11 -35 6 -3 6
-15 0 -29 -5 -13 -6 -27 -3 -30 4 -3 1 -6 -6 -6 -9 0 -11 9 -5 32 6 29 5 31
-10 19 -17 -15 -23 -81 -6 -81 6 0 10 -7 10 -15 0 -27 -17 -16 -27 18 l-9 32
-32 -65 c-17 -36 -35 -72 -40 -80 -5 -8 -23 -43 -40 -78 l-32 -63 29 -25 c31
-25 32 -52 4 -75 -17 -15 -28 -4 -37 34 -5 20 -3 27 9 27 8 0 15 5 15 10 0 17
-25 11 -37 -9 -6 -10 -15 -35 -18 -55 -4 -20 -11 -36 -16 -36 -5 0 -9 -4 -9
-10 0 -18 18 -11 25 10 3 11 10 20 15 20 5 0 7 -7 4 -15 -4 -9 0 -15 10 -15 9
0 16 -7 16 -15 0 -9 -6 -12 -15 -9 -9 4 -15 0 -15 -10 0 -13 -5 -14 -26 -6
-30 12 -44 13 -28 2 17 -11 27 -69 13 -77 -16 -10 -29 15 -22 42 8 36 -5 27
-16 -9 -12 -41 -78 -200 -120 -290 -17 -37 -31 -81 -31 -97 0 -16 -5 -33 -11
-37 -16 -10 -41 -73 -33 -86 4 -7 9 -6 15 3 17 28 15 2 -3 -31 -11 -21 -16
-26 -12 -11 4 17 2 22 -7 19 -8 -3 -15 -22 -17 -44 -2 -21 -9 -43 -15 -47 -9
-6 -9 -10 1 -14 19 -8 14 -20 -11 -27 -19 -4 -26 -17 -36 -58 -7 -29 -12 -57
-11 -62 1 -5 -2 -12 -7 -15 -17 -12 -43 -70 -43 -95 0 -14 -4 -26 -9 -26 -4 0
-14 -21 -21 -47 -7 -27 -16 -52 -20 -58 -7 -9 -91 -244 -110 -307 -5 -16 -6
-28 -2 -28 4 0 2 -4 -5 -8 -6 -4 -22 -48 -35 -97 -13 -50 -26 -91 -30 -93 -5
-2 -8 -13 -8 -23 0 -14 -4 -18 -12 -13 -9 5 -8 2 1 -9 12 -15 11 -20 -4 -37
-10 -11 -15 -26 -12 -34 4 -9 2 -18 -3 -21 -6 -4 -10 -19 -10 -34 0 -16 -6
-34 -14 -40 -8 -7 -12 -21 -9 -31 3 -11 -2 -38 -11 -61 -9 -22 -14 -45 -10
-50 3 -5 0 -16 -6 -24 -7 -8 -10 -24 -7 -35 3 -11 1 -23 -4 -26 -5 -3 -9 -14
-9 -25 0 -10 -4 -27 -9 -37 -13 -24 -31 -105 -31 -141 0 -16 -5 -33 -11 -37
-7 -4 -9 -22 -6 -45 3 -22 1 -37 -3 -34 -11 6 -20 -20 -20 -56 0 -23 3 -27 18
-22 15 6 15 5 3 -10 -7 -9 -17 -14 -22 -11 -5 3 -9 1 -9 -5 0 -5 5 -13 10 -16
14 -8 13 -45 -1 -45 -6 0 -9 7 -5 15 3 8 1 15 -4 15 -6 0 -10 -5 -10 -11 0 -8
-5 -8 -15 1 -12 10 -15 10 -15 -3 0 -8 -6 -15 -12 -14 -45 1 -56 -4 -51 -23 7
-25 20 -26 26 -2 4 15 5 15 6 -2 1 -14 7 -17 26 -14 27 6 32 -1 13 -20 -9 -9
-9 -12 0 -12 7 0 12 5 12 10 0 6 11 10 25 10 14 0 25 4 25 9 0 4 12 7 28 5 15
-2 21 -1 15 2 -20 9 -15 24 8 24 11 0 32 9 46 20 23 18 23 20 7 21 -11 1 -22
1 -25 1 -4 -1 -5 8 -2 18 3 11 10 20 17 20 6 0 5 4 -3 9 -11 7 -19 1 -31 -21
-19 -37 -60 -49 -60 -18 0 29 43 73 76 76 18 2 24 0 16 -5 -10 -6 -8 -10 8
-14 18 -5 21 -2 17 14 -3 10 -2 19 3 19 13 0 19 41 10 66 -7 19 -6 24 5 24 8
0 15 7 15 15 0 18 -12 19 -28 3 -9 -9 -12 -8 -12 4 0 9 11 19 25 22 19 5 25
13 25 34 0 15 4 34 10 42 6 9 5 19 -3 29 -9 11 -9 15 1 18 6 3 12 13 12 23 0
10 5 22 10 25 14 8 13 62 -1 71 -8 4 -7 9 2 15 10 6 11 9 2 9 -8 0 -13 12 -12
28 1 16 3 20 6 10 2 -10 9 -18 15 -18 5 0 7 7 4 16 -4 9 -1 23 5 30 7 9 8 18
2 27 -5 6 -10 26 -11 42 -1 25 0 27 9 12 5 -9 7 -22 3 -29 -5 -8 -2 -9 10 -5
10 4 20 7 22 7 12 0 1 28 -16 43 -11 9 -20 25 -19 34 0 16 1 16 8 -1 7 -17 8
-18 14 -3 4 10 12 14 22 11 11 -5 15 1 15 20 0 14 5 26 11 26 5 0 7 5 4 10 -4
6 -11 8 -16 5 -18 -12 -9 8 13 26 26 23 11 25 -20 3 -16 -11 -22 -12 -20 -2 2
7 16 17 32 23 18 6 30 18 31 30 2 11 6 28 10 38 5 13 2 17 -13 17 -12 0 -24 5
-28 11 -5 8 1 10 20 7 32 -6 45 14 26 37 -6 8 -10 20 -7 27 3 7 6 4 7 -7 1
-19 1 -19 11 -2 8 14 7 21 -7 31 -12 9 -15 19 -9 32 5 12 9 15 12 7 3 -7 9
-13 14 -13 4 0 6 7 3 15 -4 8 -2 15 4 15 9 0 23 29 26 55 1 6 5 16 9 23 5 6 5
12 0 12 -17 0 -28 -16 -30 -43 -1 -31 -9 -44 -20 -33 -4 4 -2 15 3 24 9 13 7
20 -5 29 -14 11 -14 12 -1 13 8 0 21 9 28 20 10 17 10 20 -5 20 -17 1 -17 1 0
11 14 8 22 8 30 0 21 -21 30 -11 11 11 -10 12 -14 19 -9 16 12 -7 51 19 42 28
-4 4 -13 1 -22 -6 -12 -10 -15 -10 -15 4 0 9 5 16 10 16 6 0 10 6 10 14 0 8 6
17 13 20 6 3 3 4 -7 3 -10 -1 -21 4 -23 11 -3 6 0 12 7 12 6 0 8 5 5 11 -4 6
2 13 14 16 24 6 26 15 10 44 -8 15 -7 24 2 35 7 8 14 26 15 40 1 13 9 31 16
39 43 48 51 68 21 59 -14 -5 -15 -4 -4 4 8 6 11 17 8 25 -4 11 -1 14 8 10 8
-3 18 2 21 11 3 9 10 13 15 10 5 -3 7 -9 4 -14 -3 -5 3 -8 14 -7 11 0 17 6 13
12 -10 16 -1 69 13 77 8 5 11 17 7 30 -3 14 -1 19 6 14 6 -3 14 -1 18 5 3 6 0
15 -7 20 -8 5 -9 9 -4 9 12 0 35 47 35 71 0 10 5 21 11 24 6 4 8 14 5 22 -3 8
1 22 10 30 10 10 14 27 12 45 -3 19 0 28 9 28 13 0 15 7 16 48 0 16 4 21 14
18 8 -3 11 -1 8 5 -4 5 1 21 10 36 13 19 14 27 5 33 -13 8 4 43 42 85 9 12 19
32 20 45 2 14 7 28 12 31 4 4 9 28 11 53 3 49 15 77 15 36 0 -17 3 -21 11 -13
5 5 10 29 11 52 0 30 4 41 13 37 17 -6 26 29 11 45 -8 9 -6 10 12 6 19 -4 22
-1 22 24 0 21 5 29 18 30 14 0 14 2 -3 9 -19 9 -19 9 3 16 16 5 22 13 20 28
-2 11 5 29 15 38 11 10 16 22 11 29 -5 9 -11 7 -22 -7 -14 -18 -14 -18 -8 6 3
14 6 28 6 33 0 16 40 6 40 -10 0 -14 3 -14 12 -5 9 9 10 15 2 20 -6 4 -10 24
-10 44 0 21 -3 40 -7 44 -12 12 -47 -28 -48 -55 l0 -26 -10 25 c-12 30 6 70
33 70 10 0 18 5 18 11 0 6 9 8 20 4 15 -5 20 -2 20 13 0 11 6 22 13 25 15 5
20 -45 5 -54 -6 -4 -4 -8 4 -11 9 -4 15 3 16 21 1 14 7 28 12 29 16 6 11 20
-9 27 -13 4 -17 12 -14 25 3 11 10 20 15 20 5 0 6 -9 3 -20 -6 -20 2 -26 20
-12 13 9 17 72 5 72 -6 0 -10 -5 -10 -12 0 -6 -2 -9 -5 -7 -9 10 8 49 21 49 9
0 14 -11 14 -32 0 -18 4 -28 8 -22 10 11 42 110 42 130 0 8 5 14 11 14 5 0 7
5 4 10 -3 6 1 10 9 10 9 0 17 7 17 15 3 35 6 40 19 37 11 -3 11 0 0 12 -15 20
-51 20 -67 1z"/>
<path d="M9097 13526 c-15 -30 -27 -59 -27 -64 0 -5 -7 -15 -16 -23 -24 -19
-57 -97 -50 -115 4 -12 2 -15 -9 -10 -8 3 -15 1 -15 -5 0 -15 -72 -163 -83
-170 -5 -4 -6 -12 -3 -18 4 -6 0 -14 -8 -17 -9 -3 -16 -14 -16 -23 0 -9 -6
-23 -12 -30 -11 -11 -10 -13 4 -8 9 3 18 2 20 -4 3 -10 20 21 56 101 11 25 41
89 67 143 25 54 45 103 42 110 -2 6 7 20 20 30 13 10 23 25 23 33 0 9 10 38
21 65 30 68 18 72 -14 5z"/>
<path d="M7186 13265 c-17 -13 -18 -15 -3 -15 9 0 17 -4 17 -10 0 -5 -4 -10
-9 -10 -4 0 -6 -12 -3 -27 4 -24 6 -25 18 -9 7 10 15 13 18 7 3 -5 0 -11 -6
-14 -10 -4 -11 -7 0 -18 18 -19 15 -31 -8 -24 -15 5 -21 0 -26 -19 -3 -14 -4
-31 -1 -38 3 -7 9 2 13 21 l7 34 19 -22 c10 -13 18 -29 18 -37 0 -8 5 -14 10
-14 6 0 10 -11 10 -24 0 -14 7 -31 15 -39 8 -8 11 -17 8 -21 -4 -3 -2 -6 4 -6
5 0 10 -12 11 -27 0 -16 6 -41 13 -58 7 -16 11 -36 10 -42 -1 -7 3 -13 8 -13
6 0 8 -7 5 -15 -4 -8 -1 -15 6 -15 7 0 10 -7 6 -16 -4 -11 1 -22 15 -32 12 -8
17 -17 11 -21 -6 -3 -8 -18 -5 -33 3 -15 9 -26 13 -23 11 7 31 -70 23 -90 -4
-11 0 -23 11 -30 12 -9 14 -15 6 -20 -8 -5 -6 -12 5 -25 9 -10 17 -24 19 -32
1 -7 5 -18 8 -24 4 -6 9 -21 12 -35 2 -13 10 -45 16 -71 15 -57 36 -66 26 -10
-4 20 -9 60 -12 87 -4 28 -10 57 -14 66 -5 8 -12 40 -16 70 -4 29 -14 60 -22
68 -10 10 -11 16 -3 19 6 2 9 8 5 13 -3 5 2 9 10 9 9 0 16 5 16 10 0 6 -7 10
-15 10 -8 0 -15 7 -15 16 0 8 5 12 10 9 13 -8 13 48 0 61 -7 7 -8 19 -1 37 6
15 8 28 6 28 -13 4 -26 7 -32 8 -5 1 -1 5 7 11 18 11 7 25 -15 17 -19 -8 -20
-46 0 -53 12 -5 13 -10 4 -20 -8 -10 -8 -22 -1 -42 5 -16 6 -35 2 -43 -6 -9
-10 -4 -15 17 -4 16 -11 40 -17 54 -7 14 -12 27 -12 30 -1 3 -5 10 -9 17 -4 7
0 16 10 22 17 10 16 11 -4 17 -21 6 -24 11 -42 67 -7 22 -6 29 5 34 27 10 16
43 -16 50 -42 8 -38 23 5 16 37 -6 65 9 65 34 0 18 -25 44 -34 36 -3 -4 -6 11
-6 33 0 28 -3 35 -9 24 -6 -8 -8 -18 -5 -22 7 -12 -14 -46 -36 -58 -18 -10
-20 -7 -20 25 0 37 24 51 33 18 4 -17 5 -17 6 0 1 21 -24 33 -42 19 -8 -7 -16
-6 -25 4 -9 10 -9 14 -1 14 8 0 8 4 -1 15 -7 8 -10 26 -8 40 5 22 2 24 -18 19
-25 -6 -34 10 -11 19 6 3 8 6 2 6 -5 0 -19 -6 -29 -14z"/>
<path d="M7968 11433 c-2 -10 0 -76 4 -148 4 -71 7 -198 6 -282 -2 -83 0 -155
5 -159 4 -4 7 -2 7 4 0 7 15 12 35 12 21 0 35 5 35 13 -1 69 -73 563 -84 575
-2 1 -5 -5 -8 -15z"/>
<path d="M8113 10488 c-6 -7 -13 -22 -17 -33 -6 -16 -17 -239 -16 -344 0 -24
0 -24 -15 -5 -12 16 -14 17 -15 2 0 -9 -4 -18 -10 -20 -5 -2 -6 -18 0 -42 4
-21 6 -62 3 -91 -6 -56 5 -171 15 -161 3 4 6 28 7 54 1 26 7 60 14 75 6 16 9
33 5 38 -3 5 2 9 11 9 12 0 15 -6 10 -19 -13 -41 -13 -153 0 -177 8 -17 10
-37 5 -61 -9 -37 -4 -63 10 -63 5 0 11 17 13 38 4 32 4 31 3 -8 -1 -35 -5 -44
-17 -43 -13 3 -15 -25 -15 -237 0 -132 4 -236 7 -232 4 4 14 52 23 107 22 140
42 237 67 330 11 44 36 152 54 240 50 243 56 266 65 260 5 -3 7 -11 5 -18 -2
-7 -7 -30 -10 -52 -3 -22 -15 -101 -26 -175 -11 -74 -24 -164 -29 -200 -4 -36
-13 -87 -19 -114 -7 -27 -12 -90 -12 -140 0 -64 -3 -86 -10 -76 -7 11 -8 5 -4
-19 5 -23 4 -31 -4 -27 -15 10 -14 -27 2 -44 10 -12 9 -12 -4 -2 -14 11 -17 7
-23 -25 -3 -21 -6 -51 -6 -68 l0 -29 16 22 c17 25 34 29 34 7 0 -9 -6 -12 -15
-9 -11 5 -15 -1 -15 -25 0 -37 7 -40 20 -7 7 18 14 23 29 19 15 -4 21 -1 21
12 0 14 -3 15 -15 5 -10 -8 -15 -9 -15 -2 0 6 7 15 16 20 11 6 13 11 5 16 -6
4 -11 12 -11 17 0 18 22 -3 35 -33 11 -27 12 -20 8 57 -2 47 -5 92 -6 98 -1 6
6 13 17 15 13 3 16 0 11 -9 -5 -8 -4 -10 3 -5 18 11 14 34 -7 46 -16 8 -18 15
-11 40 5 16 5 32 1 35 -5 2 -9 25 -9 51 -1 25 -6 52 -12 59 -8 10 -6 17 10 28
12 8 17 16 11 18 -12 4 -21 99 -9 99 3 0 8 -12 10 -27 2 -14 10 -28 18 -30 13
-4 13 -3 0 6 -13 9 -13 12 3 28 16 16 17 16 19 -7 0 -14 0 -33 0 -43 -1 -10 2
-16 7 -13 5 3 9 23 10 43 0 21 2 47 4 57 1 10 -3 21 -10 23 -7 3 -10 -4 -7
-19 5 -23 4 -23 -6 1 -8 18 -7 28 5 41 8 9 15 22 15 28 0 19 18 14 23 -5 4
-14 5 -12 6 5 0 12 7 22 15 22 16 0 38 126 26 149 -4 8 -3 29 2 48 5 18 7 37
3 42 -3 5 1 11 7 14 10 3 10 9 1 25 -8 13 -10 39 -6 73 6 49 5 52 -15 47 -14
-4 -22 -1 -25 11 -3 11 -5 9 -6 -6 0 -12 4 -25 9 -28 15 -9 12 -41 -6 -55 -15
-14 -15 -64 1 -90 5 -9 4 -11 -3 -6 -8 5 -12 -1 -12 -18 0 -14 -4 -27 -9 -31
-5 -3 -9 8 -9 25 1 17 4 33 8 35 3 2 2 33 -4 69 -7 50 -13 66 -25 66 -12 0
-16 9 -16 33 0 17 4 35 8 38 20 14 32 220 14 219 -4 0 -11 0 -17 0 -15 0 -12
-87 3 -93 10 -4 10 -6 0 -6 -7 -1 -13 -13 -13 -27 0 -15 4 -23 10 -19 12 8 4
-33 -16 -80 -10 -23 -13 -26 -14 -10 -1 25 -41 -69 -46 -109 -4 -31 -11 -43
-19 -34 -3 2 4 40 15 83 24 93 23 86 6 79 -8 -3 -18 -19 -21 -36 -10 -41 -19
-26 -25 40 -4 39 -9 56 -18 54 -10 -2 -11 14 -6 74 5 60 4 78 -7 85 -19 12
-32 11 -24 -1 3 -5 -4 -10 -15 -10 -19 0 -21 4 -16 25 7 28 3 32 -11 13z"/>
<path d="M29034 6431 c-68 -39 -124 -117 -124 -173 0 -15 4 -18 18 -13 9 4 29
11 44 15 64 19 135 100 152 173 6 23 3 27 -16 27 -13 0 -46 -13 -74 -29z"/>
<path d="M28665 6181 c-120 -29 -210 -147 -222 -288 -16 -206 159 -523 289
-523 13 0 55 11 93 25 39 13 78 25 88 25 10 0 58 -12 107 -27 81 -24 93 -25
129 -13 22 7 55 29 74 49 31 33 127 179 127 194 0 4 -21 26 -46 49 -69 63 -88
107 -88 203 -1 86 22 155 67 203 28 30 17 49 -48 81 -72 36 -135 38 -226 7
-93 -32 -106 -32 -197 -1 -77 26 -96 28 -147 16z"/>
<path d="M39706 3284 c-9 -24 -7 -44 5 -44 5 0 8 4 5 8 -2 4 -1 14 5 22 7 12
9 11 10 -5 1 -11 1 -23 0 -27 0 -5 4 -8 10 -8 5 0 8 -4 4 -9 -3 -6 14 -30 39
-55 24 -25 41 -48 38 -51 -3 -3 3 -5 12 -5 12 0 16 -5 13 -14 -6 -15 16 -40
26 -30 3 3 13 -8 22 -25 9 -18 21 -29 27 -25 6 4 9 1 6 -7 -5 -16 40 -69 59
-69 18 0 17 19 -2 26 -8 4 -12 10 -9 15 3 5 -3 9 -13 10 -10 0 -13 3 -6 6 8 3
3 15 -17 36 -17 18 -30 36 -30 41 0 5 -8 16 -18 25 -9 9 -34 39 -54 66 -21 28
-41 55 -46 60 -4 6 -19 25 -32 43 -26 35 -45 41 -54 16z"/>
<path d="M46633 2516 c-8 -4 -191 -10 -406 -12 -216 -3 -606 -7 -867 -10 -261
-3 -484 -6 -495 -6 -119 2 -273 0 -430 -3 -155 -3 -383 -5 -455 -4 -131 2
-1042 -10 -1046 -14 -3 -3 -18 -2 -32 2 -15 5 -36 5 -47 1 -11 -4 -24 -5 -28
-3 -5 3 -117 5 -250 4 -133 -1 -332 -1 -442 -1 -110 0 -207 0 -215 -1 -8 0
-217 -2 -465 -4 -247 -2 -526 -6 -620 -10 -93 -4 -214 -9 -268 -10 -54 -1
-100 -5 -103 -8 -12 -11 73 -57 126 -68 61 -14 1290 -20 1290 -7 0 4 12 6 28
3 86 -13 123 -14 116 -3 -4 6 -3 8 3 5 14 -9 152 -10 188 -2 24 5 27 4 15 -5
-12 -10 -12 -11 5 -5 22 8 999 16 1675 14 14 0 435 2 935 6 501 3 919 6 930 6
233 0 333 0 345 0 244 -2 464 1 472 5 6 4 31 8 56 9 26 2 48 4 50 5 1 1 8 3
15 4 7 0 15 22 18 52 4 29 9 56 12 61 7 11 -89 11 -110 -1z"/>
<path d="M16299 1903 c-1 -4 0 -21 0 -38 2 -39 -12 -60 -34 -51 -14 5 -16 14
-11 46 5 32 3 40 -9 40 -8 0 -22 -11 -31 -25 -16 -25 -16 -27 6 -50 13 -14 20
-25 15 -25 -5 0 -4 -5 3 -12 7 -7 12 -38 12 -70 0 -57 1 -58 28 -58 50 0 53 7
50 130 -2 80 -7 115 -15 118 -7 2 -13 0 -14 -5z"/>
<path d="M14862 1835 c-20 -19 -32 -35 -25 -35 6 0 -3 -16 -22 -35 -34 -36
-51 -90 -40 -125 4 -11 11 -20 16 -20 6 0 7 5 4 10 -3 6 -2 10 3 10 5 0 9 18
8 39 0 31 5 45 28 66 15 14 41 29 57 32 16 3 29 9 29 14 0 5 7 9 15 9 8 0 15
-4 15 -9 0 -5 29 -13 65 -16 36 -4 65 -11 65 -15 0 -4 33 -6 73 -4 127 7 421
16 442 14 11 -2 40 -2 65 -2 25 0 95 1 155 2 117 2 187 -10 150 -26 -11 -4
-25 -15 -32 -23 -6 -9 -15 -13 -19 -8 -4 4 -2 7 4 7 7 0 12 5 12 10 0 6 -8 5
-19 -2 -16 -10 -18 -15 -8 -27 10 -12 9 -14 -5 -8 -9 3 -31 -1 -49 -10 -17 -8
-42 -15 -55 -15 -18 0 -24 -6 -24 -22 0 -12 -3 -16 -8 -10 -4 6 -14 11 -22 12
-8 0 -26 4 -39 8 -17 5 -22 4 -17 -4 5 -8 -1 -12 -14 -12 -12 0 -19 4 -15 9
11 19 -14 21 -64 4 -49 -16 -52 -15 -66 3 -11 13 -14 14 -13 4 2 -11 -6 -15
-32 -15 -19 0 -41 -4 -47 -8 -7 -4 -20 -4 -28 1 -21 11 -82 3 -64 -9 10 -6 7
-9 -10 -9 -16 0 -22 4 -17 15 8 21 -11 19 -23 -2 -10 -17 -10 -17 -11 0 0 9
-4 17 -10 17 -5 0 -10 -4 -10 -10 0 -13 -37 -13 -45 0 -4 6 -13 7 -23 2 -9 -5
-33 -9 -52 -10 -19 -1 -44 -6 -55 -11 -11 -5 -39 -14 -62 -21 -48 -15 -59 -36
-15 -27 31 6 61 -18 63 -51 0 -10 3 -12 6 -4 7 17 23 15 23 -2 0 -8 -12 -24
-26 -35 -25 -20 -26 -21 -5 -21 11 0 21 5 21 10 0 18 20 11 28 -10 l7 -20 18
20 c17 20 11 25 -22 20 -10 -1 -12 6 -7 27 4 15 8 38 8 51 0 15 6 22 20 22 17
0 18 -2 8 -15 -21 -26 -3 -28 22 -3 20 20 23 21 26 5 4 -18 22 -24 22 -7 0 13
37 13 45 -1 5 -7 13 -5 25 6 12 11 20 13 25 6 3 -6 17 -8 31 -5 19 5 23 3 18
-10 -3 -9 -1 -16 6 -16 6 0 8 -5 5 -10 -4 -6 -10 -8 -15 -5 -4 3 -10 -4 -13
-15 -6 -23 -27 -27 -27 -5 0 8 5 15 10 15 6 0 10 7 10 15 0 18 -16 20 -23 3
-3 -8 -6 -6 -6 5 -1 20 -12 22 -30 5 -11 -10 -14 -10 -18 0 -3 6 -11 12 -19
12 -9 0 -12 -5 -8 -12 4 -7 3 -8 -4 -4 -8 5 -12 -1 -12 -16 0 -18 2 -20 10 -8
8 13 10 13 10 -1 0 -10 11 -19 25 -21 16 -4 25 -1 25 8 0 7 -8 14 -17 16 -17
3 -17 4 0 11 12 4 19 1 23 -11 3 -9 10 -26 16 -36 8 -15 7 -18 -6 -13 -26 10
-19 -9 13 -36 16 -13 32 -35 34 -48 3 -13 5 -7 4 15 -2 35 0 39 26 42 26 3 29
-1 31 -36 1 -17 46 -27 46 -10 0 6 -4 8 -10 5 -5 -3 -12 6 -16 20 -3 14 -10
25 -15 25 -21 0 -7 31 19 41 24 9 25 11 9 20 -14 8 -26 5 -53 -16 -20 -15 -38
-24 -41 -21 -8 8 27 46 43 46 10 0 10 6 -2 28 -17 33 -18 46 -2 35 7 -4 26 -6
42 -4 18 2 26 -1 22 -8 -4 -6 -16 -11 -27 -11 -12 0 -17 -4 -14 -11 4 -6 13
-8 21 -5 9 3 17 -2 21 -12 3 -9 17 -27 31 -39 14 -13 20 -23 14 -23 -6 0 -14
5 -17 10 -7 12 -25 13 -43 2 -16 -11 -5 -42 14 -42 22 0 40 -46 25 -64 -7 -8
-19 -12 -27 -9 -8 3 -14 0 -14 -7 0 -9 11 -11 36 -7 40 7 56 17 37 24 -14 5
-18 33 -5 33 4 0 15 -9 25 -20 13 -16 15 -25 7 -40 -15 -29 -12 -37 6 -12 8
12 22 22 31 22 14 0 14 2 -3 14 -10 8 -19 20 -19 28 -1 7 -6 12 -13 10 -7 -1
-12 3 -12 9 0 6 7 8 16 5 9 -3 18 -6 20 -6 2 0 4 -7 4 -16 0 -8 5 -12 11 -8 6
3 9 15 6 25 -3 10 -1 22 4 25 8 5 13 -12 12 -44 -1 -10 2 -10 13 -1 11 9 14 7
15 -12 0 -13 3 -18 6 -11 2 6 11 12 19 12 9 0 14 11 14 30 0 17 -4 30 -10 30
-5 0 -10 7 -10 15 0 18 1 18 36 5 24 -10 25 -12 10 -23 -11 -8 -17 -28 -19
-54 -1 -33 -4 -40 -14 -31 -18 14 -16 2 3 -27 9 -14 12 -30 8 -37 -6 -10 -5
-10 7 -2 8 6 22 11 32 11 15 0 18 -7 15 -34 -4 -37 13 -45 32 -15 11 16 11 16
6 0 -3 -12 0 -18 9 -18 18 0 20 -20 3 -20 -7 0 -5 -5 5 -11 15 -9 24 -4 52 28
l34 38 1 -27 c0 -32 16 -37 25 -8 4 12 21 24 48 31 86 23 105 46 105 127 1 26
13 47 60 100 95 107 111 165 67 251 -45 90 -118 128 -224 117 -99 -11 -337
-17 -685 -19 -264 -2 -340 1 -343 11 -7 19 -21 14 -61 -23z"/>
<path d="M48066 1832 c-4 -4 -1133 -10 -3001 -17 -1581 -7 -2033 -9 -3250 -20
-865 -7 -1210 -14 -1237 -24 -20 -7 -14 -10 37 -22 46 -11 174 -14 565 -13
854 0 6185 20 7720 29 437 2 1326 7 1975 10 2362 12 2389 13 2408 39 6 8 10 7
14 -1 7 -18 23 -16 23 2 0 12 -19 15 -102 17 -141 4 -5149 4 -5152 0z"/>
<path d="M19418 1305 c-3 -3 -553 -6 -1222 -6 l-1217 -1 -20 -21 c-26 -28 -24
-78 4 -109 12 -14 33 -40 47 -57 14 -17 33 -31 42 -31 10 0 18 -4 18 -10 0
-39 208 -46 1415 -45 974 0 1052 2 1082 17 51 28 70 64 78 149 l7 76 -35 22
c-28 17 -50 21 -114 21 -44 0 -82 -2 -85 -5z m-2243 -46 c4 -6 14 -8 22 -5 14
6 70 -26 85 -49 28 -40 -122 -72 -196 -41 -30 12 -36 20 -36 44 0 33 14 48 50
55 46 8 69 7 75 -4z"/>
<path d="M38688 1180 c-118 -22 -365 -40 -548 -41 -74 0 -153 -3 -175 -6 -35
-5 -37 -7 -17 -14 12 -5 201 -7 420 -6 437 3 454 5 460 60 4 33 -1 33 -140 7z"/>
<path d="M15700 912 c0 -9 -7 -11 -19 -7 -12 3 -21 0 -25 -11 -3 -9 -13 -14
-21 -10 -8 3 -14 0 -12 -7 1 -7 -5 -12 -13 -12 -8 0 -26 -10 -40 -22 -25 -23
-46 -31 -35 -13 3 6 -1 7 -9 4 -17 -7 -21 -20 -7 -26 4 -1 5 -12 0 -23 -5 -14
-8 -16 -8 -4 -1 11 -11 15 -35 15 -22 -1 -31 -5 -25 -10 14 -15 11 -26 -5 -20
-7 3 -21 -2 -30 -11 -15 -15 -17 -15 -26 7 -9 21 -10 20 -7 -9 2 -18 -1 -33
-5 -33 -5 0 -16 -7 -25 -15 -10 -10 -19 -12 -27 -7 -6 5 -20 6 -31 1 -24 -9
-16 -11 50 -14 151 -6 233 -6 255 0 23 6 53 12 73 14 4 1 7 8 7 16 0 9 9 28
20 43 24 33 38 112 20 112 -7 0 -10 6 -7 13 3 8 1 20 -4 28 -7 11 -9 11 -9 1z"/>
</g>
</svg>
